<svg width="41" height="42" viewBox="0 0 41 42" fill="none" xmlns="http://www.w3.org/2000/svg">
<path d="M18.189 40.9199C13.7568 40.3315 9.6764 38.5559 6.43782 35.4315C2.36072 31.576 0.0356726 26.2222 0.00136878 20.611C-0.0120523 19.7144 0.074784 18.7325 0.19327 17.8432C1.53092 7.8036 10.0629 0.109677 20.3051 0.000455454C25.7172 -0.035501 30.9262 2.05878 34.8071 5.83095C38.7364 9.64834 40.9674 14.8842 40.9992 20.3623C41.0401 24.8324 39.5385 29.5977 36.6944 33.0556C36.4033 33.4094 36.1908 33.7794 35.8679 34.108C35.5511 34.1573 35.572 34.3247 35.2178 34.4808L35.2272 34.4612C34.5372 34.9432 34.2925 35.3508 33.746 35.7874C32.669 36.648 31.5529 37.5375 30.3208 38.156C30.0873 38.2733 29.9848 38.4104 29.8086 38.5168C29.5506 38.6726 28.9402 38.706 28.8254 39.0118L28.9041 39.1068C28.5421 39.1313 28.442 39.327 28.1103 39.4602C27.7544 39.603 26.672 39.5921 26.3986 39.804L26.4302 39.8481L26.7655 39.89C26.3857 40.2528 25.4537 39.8958 25.0105 40.3305C24.5872 40.7455 20.9971 40.9105 20.232 40.8959C19.5369 40.8826 18.8825 40.8136 18.189 40.9199ZM25.0194 18.7279C24.7311 18.7461 24.6884 19.0342 24.4214 19.0933C24.4626 18.9777 24.8918 18.7766 24.7951 18.5473C24.5681 18.6635 22.5714 20.7363 22.4757 20.9708L22.5252 20.9326C22.2976 21.2806 22.1161 21.3445 22.071 21.6247C21.9927 21.7129 21.7022 22.0397 21.6094 22.0915C21.3378 22.1659 20.864 22.6846 20.6334 22.9074C20.6604 22.7062 20.9133 22.6595 21.0114 22.4093L20.9561 22.3498C20.1932 23.2401 19.0938 24.145 18.2748 25.0157C18.1892 25.1067 17.9646 25.2508 17.8332 25.2618C16.9994 25.0797 15.796 23.0472 14.9279 22.6398C14.8847 22.6194 14.6678 22.4501 14.6427 22.4167C14.6053 21.8657 13.0316 20.8662 12.5299 20.6372C12.4203 20.5872 12.0192 20.5596 11.887 20.5669C11.0338 20.614 10.2288 21.1709 10.2884 22.098L10.2899 22.2036C10.2165 22.3912 10.1874 22.8676 10.1926 23.0764C10.1949 23.1727 10.2988 23.599 10.3536 23.6599C10.8633 24.2266 11.4559 24.7822 11.987 25.3198C13.0192 26.3697 14.06 27.4111 15.1093 28.4439C15.5782 28.9111 16.088 29.4234 16.5809 29.8723C16.6808 29.9634 16.7952 29.9069 16.9283 29.8761C17.2363 30.0449 17.6316 30.1566 17.9708 30.2645L17.7748 30.2267C17.8342 30.2469 18.1339 30.347 18.1746 30.3388C18.437 30.2863 18.9733 29.9603 19.1819 29.8175C19.3598 29.6957 19.5615 29.2538 19.7332 29.1146C20.1282 28.8024 20.495 28.4751 20.866 28.1356C21.0661 27.9525 21.3556 27.8328 21.3369 27.4951C21.4433 27.4934 21.4765 27.4825 21.5808 27.4574C21.5794 27.4416 21.5696 27.3206 21.5745 27.315C22.0233 26.7726 22.7883 26.3485 23.158 25.7214C23.4852 25.1662 23.9683 25.3278 24.2129 24.7061C24.2786 24.539 24.5945 24.7987 24.6244 24.2704C25.6418 23.2839 26.673 22.1337 27.7612 21.2506C28.0134 21.046 28.9012 19.8803 29.0767 19.791C29.7015 19.4735 29.9006 18.888 30.2374 18.6482L30.2639 18.7183L30.3066 18.7137C30.4539 18.5062 30.5841 18.2952 30.7291 18.0897C30.8615 17.9022 30.9051 17.9172 31.0918 17.8957C31.4099 17.6162 32.1955 16.7964 32.4028 16.4294C32.5671 16.1389 32.604 14.757 32.5022 14.4189C32.4959 14.3714 32.3347 14.1074 32.2946 14.1084C32.1001 14.1131 31.6874 13.6837 31.5754 13.6683C31.1268 13.6067 30.1322 13.5989 29.7328 13.7938C29.7011 13.9008 29.7018 13.9146 29.6329 13.9991L29.3709 13.9854C29.1567 14.0645 26.1237 17.1882 25.8726 17.5419L25.895 17.5291C25.7641 17.7727 25.7051 17.8309 25.5136 18.0352L25.5192 18.1784C25.4311 18.2781 25.101 18.6641 25.0194 18.7279Z" fill="#F8F0E2"/>
<path d="M25.5192 18.1784L25.5136 18.0352C25.7051 17.8309 25.7641 17.7727 25.895 17.5291L25.8726 17.5419C26.1237 17.1882 29.1567 14.0645 29.3709 13.9854L29.6329 13.9991C29.7018 13.9146 29.7011 13.9008 29.7328 13.7938C30.1322 13.5989 31.1268 13.6067 31.5754 13.6683C31.6874 13.6837 32.1001 14.1131 32.2946 14.1084C32.3347 14.1074 32.4959 14.3714 32.5022 14.4189C32.604 14.757 32.5671 16.1389 32.4028 16.4294C32.1955 16.7964 31.4099 17.6162 31.0918 17.8957C30.9051 17.9172 30.8615 17.9022 30.7291 18.0897C30.5841 18.2952 30.4539 18.5062 30.3066 18.7137L30.2639 18.7183L30.2374 18.6482C29.9006 18.888 29.7015 19.4735 29.0767 19.791C28.9012 19.8803 28.0134 21.046 27.7612 21.2506C26.673 22.1337 25.6418 23.2839 24.6244 24.2704C24.5945 24.7987 24.2786 24.539 24.2129 24.7061C23.9683 25.3278 23.4852 25.1662 23.158 25.7214C22.7883 26.3485 22.0233 26.7726 21.5745 27.315C21.5696 27.3206 21.5794 27.4416 21.5808 27.4574C21.4765 27.4825 21.4433 27.4934 21.3369 27.4951C21.3556 27.8328 21.0661 27.9525 20.866 28.1356C20.495 28.4751 20.1282 28.8024 19.7332 29.1146C19.5615 29.2538 19.3598 29.6957 19.1819 29.8175C18.9733 29.9603 18.437 30.2863 18.1746 30.3388C18.1339 30.347 17.8342 30.2469 17.7748 30.2267L17.9708 30.2645C17.6316 30.1566 17.2363 30.0449 16.9283 29.8761C16.7952 29.9069 16.6808 29.9634 16.5809 29.8723C16.088 29.4234 15.5782 28.9111 15.1093 28.4439C14.06 27.4111 13.0192 26.3697 11.987 25.3198C11.4559 24.7822 10.8633 24.2266 10.3536 23.6599C10.2988 23.599 10.1949 23.1727 10.1926 23.0764C10.1874 22.8676 10.2165 22.3912 10.2899 22.2036C10.2968 22.5131 10.3088 22.8224 10.3258 23.1315C12.1538 25.0969 14.127 26.9376 15.9946 28.8577C17.9657 30.8842 18.6133 29.9451 20.2238 28.3747C21.2173 27.4085 22.1963 26.4275 23.1605 25.4321L28.5168 20.0619C29.6892 18.8661 30.9952 17.7364 32.0663 16.4439C32.5419 15.87 32.446 15.2417 32.3189 14.5642C30.4946 12.6523 29.122 14.6459 27.8636 15.8834C27.0982 16.6361 26.3393 17.5076 25.5192 18.1784Z" fill="#F8F0E2"/>
<path d="M10.2884 22.098C10.2288 21.1709 11.0338 20.614 11.887 20.5669C12.0192 20.5596 12.4203 20.5872 12.5299 20.6372C13.0316 20.8662 14.6053 21.8657 14.6427 22.4167C14.6678 22.4501 14.8847 22.6194 14.9279 22.6398C15.796 23.0472 16.9994 25.0797 17.8332 25.2618C17.9646 25.2508 18.1892 25.1067 18.2748 25.0157C19.0938 24.145 20.1932 23.2401 20.9561 22.3498L21.0114 22.4093C20.9133 22.6595 20.6604 22.7062 20.6334 22.9074C20.864 22.6846 21.3378 22.1659 21.6094 22.0915C21.1158 22.7258 20.5704 23.1588 20.0146 23.7198C19.2987 24.4425 18.7154 25.1399 17.8998 25.7616C17.5021 25.4501 16.9617 25.1281 16.6258 24.7584C15.9563 24.0215 15.2631 23.3551 14.5568 22.6548C13.6403 21.7462 12.5218 20.1519 11.0528 21.052C10.5876 21.3371 10.4463 21.5966 10.2884 22.098Z" fill="#F8F0E2"/>
<path d="M22.071 21.6247C22.1161 21.3445 22.2976 21.2806 22.5252 20.9326L22.4757 20.9708C22.5714 20.7363 24.5681 18.6635 24.7951 18.5473C24.8918 18.7766 24.4626 18.9777 24.4214 19.0933C24.6884 19.0342 24.7311 18.7461 25.0194 18.7279C24.8565 18.9735 22.3002 21.4612 22.071 21.6247Z" fill="#F8F0E2"/>
<path d="M18.189 40.9199C18.8825 40.8136 19.5369 40.8826 20.232 40.8959C20.9971 40.9105 24.5872 40.7455 25.0105 40.3305C25.4537 39.8958 26.3857 40.2528 26.7655 39.89L26.4302 39.8481L26.3986 39.804C26.672 39.5921 27.7544 39.603 28.1103 39.4602C28.442 39.327 28.5421 39.1313 28.9041 39.1068L28.8254 39.0118C28.9402 38.706 29.5506 38.6726 29.8086 38.5168C29.9848 38.4104 30.0873 38.2733 30.3208 38.156C31.5529 37.5375 32.669 36.648 33.746 35.7874C34.2925 35.3508 34.5372 34.9432 35.2272 34.4612L35.2178 34.4808C35.572 34.3247 35.5511 34.1573 35.8679 34.108C35.5476 34.5225 35.08 34.9409 34.6927 35.323C30.9975 38.969 25.9506 40.973 20.778 41.0777C20.1082 41.0913 18.8066 41.0558 18.189 40.9199Z" fill="#F8F0E2"/>
</svg>
