<svg width="28" height="29" viewBox="0 0 28 29" fill="none" xmlns="http://www.w3.org/2000/svg">
<path d="M17.4981 0.0387219C17.9739 0.00563407 18.6004 0.0228843 19.0906 0.0228471L24.1494 0.0207283C24.6266 0.0208027 25.1144 -0.000388685 25.5895 0.0449677C25.9239 0.076903 26.2818 0.147391 26.5761 0.312867C27.2697 0.702821 27.6935 1.2874 27.9007 2.05362C28.0247 2.51221 28.0223 9.77852 27.9499 10.4104C27.9083 10.7735 27.7528 11.2097 27.5683 11.5254C27.1848 12.1818 26.4944 12.5498 25.7819 12.7385C25.7489 12.7429 25.7159 12.7467 25.6828 12.7502C25.1596 12.8042 24.4717 12.783 23.9363 12.7812L21.2855 12.7756C20.6146 12.774 19.9437 12.7769 19.2728 12.7844C18.3288 12.7947 17.5381 12.8612 16.6493 12.4587C15.0779 11.7472 15.2498 10.116 15.2499 8.66149L15.2513 3.63998C15.2512 3.2117 15.2216 2.61374 15.2956 2.20185C15.4942 1.09645 16.3379 0.142186 17.4981 0.0387219Z" fill="#F8F0E2"/>
<path d="M2.25341 0.0389802C3.63804 -0.0387577 5.67859 0.0237744 7.11382 0.0238859L9.11237 0.0208748C9.94057 0.0190159 10.7384 -0.0476434 11.478 0.388187C11.9307 0.654971 12.3972 1.14162 12.5415 1.64987C12.6343 1.97477 12.6931 2.30843 12.7169 2.64545C12.7476 3.08124 12.7319 3.68321 12.7323 4.13291L12.7321 8.93024C12.7303 10.7941 12.6771 12.1747 10.5729 12.7379C10.5424 12.7422 10.5119 12.7461 10.4813 12.7495C9.98793 12.8044 9.32718 12.781 8.82015 12.7797L6.29514 12.7774L4.15205 12.782C3.04982 12.7899 1.86687 12.8819 0.942942 12.1634C-0.152191 11.3119 0.0149582 10.0344 0.0141774 8.80763L0.0149586 3.7311C0.0153675 3.21578 -0.00578664 2.65667 0.0702039 2.14876C0.226497 1.10393 1.19746 0.146311 2.25341 0.0389802Z" fill="#F8F0E2"/>
<path d="M17.3803 15.2751C17.8929 15.2315 18.525 15.2543 19.0493 15.2562L21.7688 15.2617L24.2589 15.2561C25.2331 15.2539 25.9557 15.147 26.8136 15.695C28.1113 16.5237 27.9751 17.8929 27.9755 19.2178L27.9744 24.3591C27.9736 25.1688 28.0324 26.0596 27.5459 26.78C27.1508 27.365 26.5424 27.8224 25.8421 27.9737C24.3464 28.0653 22.564 27.9613 21.0381 27.9956C19.9474 28.0201 18.7123 28.0084 17.6236 27.973C17.2582 27.9332 16.8891 27.8305 16.5683 27.6607C15.007 26.8347 15.2502 25.0581 15.2498 23.571L15.2495 20.6366C15.2498 19.6392 15.2292 18.5562 15.2815 17.5608C15.2986 17.2344 15.5547 16.6416 15.7147 16.3504C16.0404 15.7577 16.7414 15.441 17.3803 15.2751Z" fill="#F8F0E2"/>
<path d="M2.15764 15.2765C2.62277 15.2335 3.24958 15.2562 3.73069 15.2572L6.44133 15.2599L9.01155 15.2566C9.98429 15.2557 10.7248 15.1548 11.5972 15.6962C12.9167 16.5151 12.7313 18.046 12.7321 19.4093L12.7311 24.2266C12.7312 25.1206 12.7966 26.0071 12.2957 26.7914C11.9126 27.3987 11.3006 27.8257 10.5983 27.9756C9.07051 28.0558 7.34176 27.9666 5.7921 27.9955C4.69645 28.0159 3.48852 28.0087 2.39543 27.9731C2.06165 27.9375 1.73572 27.8579 1.44265 27.7039C-0.242266 26.819 0.0132909 25.2949 0.0145178 23.6666L0.0151872 18.9464C0.0157448 18.2799 -0.0337757 17.6496 0.166499 17.0061C0.472431 16.0232 1.1975 15.5337 2.15764 15.2765Z" fill="#F8F0E2"/>
</svg>
