<svg width="45" height="27" viewBox="0 0 45 27" fill="none" xmlns="http://www.w3.org/2000/svg">
<path d="M0.120512 2.09024C0.300527 2.10144 0.377911 2.08065 0.461006 2.22986L0.375761 2.40367C0.719271 2.63209 1.05874 2.92407 1.38718 3.18143C3.00508 4.44894 4.51191 5.86311 6.05766 7.21153L13.404 13.5989C13.7872 13.934 14.2069 14.2446 14.5844 14.5784L16.8421 16.5607C18.547 18.0712 19.4874 19.1627 21.9653 19.4098C25.0115 19.774 26.8949 17.7186 28.8913 15.9559C29.7221 15.2223 30.6045 14.4649 31.4578 13.7393C32.4995 12.8534 33.5147 11.8237 34.6169 10.9989C35.1789 10.5784 35.5505 10.1518 36.0601 9.70736L39.4695 6.73535C41.112 5.31382 42.7454 3.87679 44.4507 2.52141C44.5597 2.4348 44.5274 2.30604 44.5415 2.16966L44.6331 2.11725C44.798 2.12281 44.7424 2.10197 44.8616 2.18065C45.0406 2.96917 44.9948 4.40887 44.9947 5.25935L44.9919 21.0348C44.9918 22.9753 44.9456 25.0725 44.9975 27L0 26.9965C0.0570854 26.391 0.0113137 24.963 0.011356 24.2853L0.0117887 18.7278L0.120512 2.09024Z" fill="#002A8B"/>
<path d="M3.60645 0.0229451L36.788 0.0174723C37.5388 0.0172534 41.8894 -0.0770105 42.1904 0.174608C42.2086 0.247506 42.2274 0.24952 42.1764 0.311166C41.7717 0.799868 41.1387 1.21204 40.6625 1.63423C40.1159 2.11895 39.6038 2.6235 39.0474 3.08979L38.8548 3.11544C38.7455 3.2217 38.7161 3.22437 38.5662 3.25528L38.5887 3.22827C38.3891 3.2844 38.1297 3.44972 37.9751 3.59307C37.9747 3.59342 37.8878 3.80445 37.8876 3.80458C37.8244 3.87643 37.5671 3.95607 37.5169 4.00532C36.6446 4.86228 35.6674 5.66757 34.7383 6.48758C34.7495 6.47773 34.6961 6.6832 34.6928 6.69432C34.222 6.86529 34.1832 6.76227 34.0224 7.23477C33.926 7.27663 33.9158 7.27505 33.8071 7.28543L33.778 7.28801C33.5669 7.47965 33.818 7.60377 33.4533 7.72404C33.5101 7.62947 33.5123 7.66034 33.491 7.57873C33.1076 7.6578 33.1724 7.88201 32.9043 8.1898C32.8319 8.20141 32.8045 8.18065 32.7372 8.1511L32.7117 8.13963C32.6042 8.21634 32.5813 8.22785 32.5307 8.34326C32.5891 8.3455 32.6401 8.34795 32.6986 8.35259C32.4492 8.59987 32.0581 8.98844 31.7772 9.22071C31.7102 9.27609 31.6446 9.23586 31.5684 9.20946C31.124 9.45486 31.087 9.83721 30.5872 10.0159C30.2961 10.2775 30.0265 10.6201 29.7482 10.8964C29.5809 11.0625 29.0767 11.3294 28.9398 11.4733C28.7735 11.648 28.8449 11.8921 28.5899 12.0075C28.6537 11.8968 28.7736 11.7144 28.7884 11.5988C28.5208 11.702 28.4323 12.006 28.2971 12.2069C28.1481 12.2803 27.9766 12.2787 27.8652 12.4073C27.7802 12.5053 27.5342 12.7848 27.4228 12.839C27.0188 13.0356 26.4151 13.9019 26.1182 14.003C25.4586 14.2273 25.6649 14.5058 25.4 14.7061L25.2996 14.6714C25.2692 14.68 25.233 14.6902 25.1907 14.702C25.0214 14.9393 24.3133 15.4539 24.1975 15.6058L24.2656 15.653C24.2094 15.8745 23.4351 15.7899 23.2661 16.0113L23.332 16.1145C23.299 16.1767 23.3147 16.1766 23.265 16.205C22.1451 16.8443 20.8862 15.6459 20.1404 14.9726C20.0848 14.9291 19.5703 14.3917 19.556 14.3907C19.0729 14.3582 18.8625 13.6967 18.4725 13.6087C18.4554 13.7004 18.4807 13.6702 18.4139 13.714C18.3786 13.6518 18.3805 13.5702 18.3752 13.498C18.2002 13.2157 18.0004 13.0458 17.6808 12.9251L17.6571 12.9163C17.7471 12.8984 17.7781 12.8902 17.8641 12.8596C17.8037 12.8116 17.5592 12.7666 17.3043 12.5629C16.8381 12.1937 16.439 11.754 16.0034 11.3533C15.8947 11.2533 15.2404 10.8689 15.213 10.8296C14.6079 9.95862 13.6765 9.35083 12.8518 8.67076C12.8518 8.67076 12.8273 8.50298 12.8253 8.48976C12.7636 8.39291 12.4444 8.27001 12.2833 8.1733C12.1552 7.80513 11.6316 7.53749 11.3089 7.2927C11.3425 7.31818 11.1893 7.29826 11.1668 7.2916L11.142 7.16481L11.0995 7.27199C10.9974 7.1571 11.0726 6.98499 11.003 6.87654C10.96 6.80956 10.6214 6.87589 10.3886 6.48289L10.2339 6.48303C10.3161 6.43828 10.3257 6.43255 10.3967 6.37401C10.2969 6.25242 10.055 6.27882 9.95089 6.19568C9.72655 6.01644 9.6494 5.8822 9.38531 5.73281L9.34579 5.71096C9.34245 5.69848 9.3394 5.68592 9.33577 5.67353C9.25994 5.41276 7.97189 4.43558 7.67788 4.26154C7.58624 4.20725 7.58991 4.05594 7.57227 3.9625C7.45462 3.86592 7.30921 3.80769 7.18553 3.71859C6.74532 3.40143 6.33596 3.0464 5.86469 2.76816C5.79432 2.72657 5.79738 2.61777 5.7858 2.54837C5.76332 2.53182 4.63695 1.54544 4.68211 1.65862C4.43499 1.03936 3.48588 0.824648 3.44039 0.100221L3.60645 0.0229451Z" fill="#002A8B"/>
<path d="M39.0474 3.08979C38.6919 3.48711 37.4708 4.44711 37.0194 4.84325C36.499 5.29986 35.9623 5.78265 35.4397 6.24955C34.9054 6.72687 34.2462 7.23041 33.6875 7.71114C30.9837 10.038 28.3685 12.4736 25.5986 14.7296C24.9395 15.2983 24.5029 15.8386 23.6773 16.229C21.828 17.1033 20.5447 15.7488 19.323 14.6938C17.9545 13.5119 16.5523 12.322 15.1792 11.1395C14.742 10.763 14.3424 10.343 13.9059 9.96363L9.61008 6.30091C7.42136 4.41068 5.29224 2.44576 3.06703 0.595944C2.95792 0.505226 2.89384 0.445813 2.82434 0.324754C2.8164 0.176813 2.79632 0.232942 2.9032 0.115955C3.09493 0.0220849 3.38229 0.0320957 3.60645 0.0229451L3.44039 0.100221C3.48588 0.824648 4.43499 1.03936 4.68211 1.65862C4.63695 1.54544 5.76332 2.53182 5.7858 2.54837C5.79738 2.61777 5.79432 2.72657 5.86469 2.76816C6.33596 3.0464 6.74532 3.40143 7.18553 3.71859C7.30921 3.80769 7.45462 3.86592 7.57227 3.9625C7.58991 4.05594 7.58624 4.20725 7.67788 4.26154C7.97189 4.43558 9.25994 5.41276 9.33577 5.67353C9.3394 5.68592 9.34245 5.69848 9.34579 5.71096L9.38531 5.73281C9.6494 5.8822 9.72655 6.01644 9.95089 6.19568C10.055 6.27882 10.2969 6.25242 10.3967 6.37401C10.3257 6.43255 10.3161 6.43828 10.2339 6.48303L10.3886 6.48289C10.6214 6.87589 10.96 6.80956 11.003 6.87654C11.0726 6.98499 10.9974 7.1571 11.0995 7.27199L11.142 7.16481L11.1668 7.2916C11.1893 7.29826 11.3425 7.31818 11.3089 7.2927C11.6316 7.53749 12.1552 7.80513 12.2833 8.1733C12.4444 8.27001 12.7636 8.39291 12.8253 8.48976C12.8273 8.50298 12.8518 8.67076 12.8518 8.67076C13.6765 9.35083 14.6079 9.95862 15.213 10.8296C15.2404 10.8689 15.8947 11.2533 16.0034 11.3533C16.439 11.754 16.8381 12.1937 17.3043 12.5629C17.5592 12.7666 17.8037 12.8116 17.8641 12.8596C17.7781 12.8902 17.7471 12.8984 17.6571 12.9163L17.6808 12.9251C18.0004 13.0458 18.2002 13.2157 18.3752 13.498C18.3805 13.5702 18.3786 13.6518 18.4139 13.714C18.4807 13.6702 18.4554 13.7004 18.4725 13.6087C18.8625 13.6967 19.0729 14.3582 19.556 14.3907C19.5703 14.3917 20.0848 14.9291 20.1404 14.9726C20.8862 15.6459 22.1451 16.8443 23.265 16.205C23.3147 16.1766 23.299 16.1767 23.332 16.1145L23.2661 16.0113C23.4351 15.7899 24.2094 15.8745 24.2656 15.653L24.1975 15.6058C24.3133 15.4539 25.0214 14.9393 25.1907 14.702C25.233 14.6902 25.2692 14.68 25.2996 14.6714L25.4 14.7061C25.6649 14.5058 25.4586 14.2273 26.1182 14.003C26.4151 13.9019 27.0188 13.0356 27.4228 12.839C27.5342 12.7848 27.7802 12.5053 27.8652 12.4073C27.9766 12.2787 28.1481 12.2803 28.2971 12.2069C28.4323 12.006 28.5208 11.702 28.7884 11.5988C28.7736 11.7144 28.6537 11.8968 28.5899 12.0075C28.8449 11.8921 28.7735 11.648 28.9398 11.4733C29.0767 11.3294 29.5809 11.0625 29.7482 10.8964C30.0265 10.6201 30.2961 10.2775 30.5872 10.0159C31.087 9.83721 31.124 9.45486 31.5684 9.20946C31.6446 9.23586 31.7102 9.27609 31.7772 9.22071C32.0581 8.98844 32.4492 8.59987 32.6986 8.35259C32.6401 8.34795 32.5891 8.3455 32.5307 8.34326C32.5813 8.22785 32.6042 8.21634 32.7117 8.13963L32.7372 8.1511C32.8045 8.18065 32.8319 8.20141 32.9043 8.1898C33.1724 7.88201 33.1076 7.6578 33.491 7.57873C33.5123 7.66034 33.5101 7.62947 33.4533 7.72404C33.818 7.60377 33.5669 7.47965 33.778 7.28801L33.8071 7.28543C33.9158 7.27505 33.926 7.27663 34.0224 7.23477C34.1832 6.76227 34.222 6.86529 34.6928 6.69432C34.6961 6.6832 34.7495 6.47773 34.7383 6.48758C35.6674 5.66757 36.6446 4.86228 37.5169 4.00532C37.5671 3.95607 37.8244 3.87643 37.8876 3.80458C37.8878 3.80445 37.9747 3.59342 37.9751 3.59307C38.1297 3.44972 38.3891 3.2844 38.5887 3.22827L38.5662 3.25528C38.7161 3.22437 38.7455 3.2217 38.8548 3.11544L39.0474 3.08979Z" fill="#002A8B"/>
</svg>
