<svg width="28" height="37" viewBox="0 0 28 37" fill="none" xmlns="http://www.w3.org/2000/svg">
<path d="M0.0584675 32.3026C0.107553 31.9348 0.0791486 30.527 0.0789851 30.0851L0.0752246 7.12292C0.0753064 6.34078 0.0238093 4.80359 0.174131 3.99828C0.209934 3.80643 1.1482 2.9593 1.37262 2.94161C2.13057 2.88189 2.8749 2.72618 3.60763 2.47421C3.76 2.42202 4.12215 2.53588 4.28326 2.39055L4.25891 2.33435L4.09035 2.27713C4.18325 2.21125 4.38377 2.28539 4.47483 2.25518C4.9967 2.08197 5.49684 2.0091 6.03478 1.91821C6.07577 1.85535 6.07822 1.85081 6.09923 1.77769L6.10397 1.76061C6.22781 1.76866 6.3615 1.78002 6.4788 1.73833C6.64469 1.67932 6.82599 1.61208 6.99936 1.57808C7.37636 1.50415 7.74644 1.47141 8.11468 1.35354C8.36367 1.27381 8.58053 1.15846 8.82514 1.07641C8.96925 1.03738 9.48033 1.05811 9.66597 1.0151C9.84302 0.974086 10.1988 0.809267 10.3815 0.735789C10.4206 0.678836 10.4529 0.631765 10.4784 0.594577C11.3124 0.59658 12.0232 0.49106 12.557 0.111899C12.7561 -0.029509 13.7584 1.19032 13.8969 1.37201C13.9531 1.44566 14.0983 1.4739 14.2101 1.47165C14.8825 1.45007 15.5702 1.44942 16.2399 1.44795L21.1708 1.44615L24.7765 1.44893C25.3872 1.44971 26.2168 1.47803 26.7986 1.43197C27.7206 1.6756 27.9619 2.33153 27.9736 3.21368C27.984 3.99648 27.9747 4.7798 27.9739 5.56256L27.9745 30.1843C27.9754 31.192 28.1143 33.2464 27.7348 34.1511C27.2754 35.246 25.0522 34.9529 23.9626 34.9474L19.7074 34.9438C17.9772 34.9443 16.2419 34.9206 14.5134 34.9944C14.3522 35.0013 14.2074 35.007 14.0453 34.9981C13.5661 36.0357 13.3312 36.4864 12.1082 36.2193C11.1159 36.0026 10.1569 35.7091 9.17711 35.462L3.84701 34.1343C3.2485 33.9799 2.64137 33.8321 2.03935 33.6931C1.16827 33.492 0.20225 33.3692 0.0584675 32.3026ZM2.86252 5.28521C2.75311 6.00527 2.79496 7.66225 2.795 8.45967L2.79709 24.992C2.79717 26.947 2.75577 29.0957 2.81944 31.0348C3.42997 31.0537 4.14144 31.2773 4.73215 31.453C5.37283 31.5823 6.00674 31.7941 6.64342 31.9538C7.48801 32.1657 8.34711 32.3407 9.19125 32.5443C9.87858 32.7101 10.4531 32.9243 11.1731 33.0218C11.2575 32.3459 11.2188 31.0056 11.2188 30.2781L11.2165 8.63493C11.2166 8.0092 11.295 3.53664 11.1519 3.32313C11.0557 3.31271 11.0282 3.30973 10.9325 3.32105C10.7714 3.358 10.5722 3.39592 10.4158 3.44419C9.03141 3.87133 7.56207 4.10785 6.16671 4.48014L4.34821 4.96576C3.69959 5.13722 3.55883 5.23253 2.86252 5.28521Z" fill="#002A8B"/>
<path d="M8.03989 16.826C8.77127 16.6169 9.53326 17.0421 9.73941 17.7743C9.94556 18.5065 9.51736 19.2668 8.78435 19.47C8.3031 19.6035 7.78739 19.4652 7.43746 19.1089C7.09807 18.7633 6.96581 18.2645 7.0894 17.7961C7.213 17.3277 7.57417 16.9591 8.03989 16.826Z" fill="#002A8B"/>
<path d="M0.285003 3.35877C1.29831 2.54009 1.35324 2.8051 2.51899 2.50074L7.9487 1.14024C9.03324 0.876663 10.0988 0.564231 11.1813 0.293267C11.84 0.128395 12.7349 -0.251477 13.334 0.250811C13.6107 0.482776 13.9387 0.965863 14.0598 1.307C14.8224 1.42903 16.771 1.37949 17.637 1.37945L24.0932 1.38157C24.616 1.37994 26.373 1.3284 26.7986 1.43197C26.2168 1.47803 25.3872 1.44971 24.7765 1.44893L21.1708 1.44615L16.2399 1.44795C15.5702 1.44942 14.8825 1.45007 14.2101 1.47165C14.0983 1.4739 13.9531 1.44566 13.8969 1.37201C13.7584 1.19032 12.7561 -0.029509 12.557 0.111899C12.0232 0.49106 11.3124 0.59658 10.4784 0.594577C10.4529 0.631765 10.4206 0.678836 10.3815 0.735789C10.1988 0.809267 9.84302 0.974086 9.66597 1.0151C9.48033 1.05811 8.96925 1.03738 8.82514 1.07641C8.58053 1.15846 8.36367 1.27381 8.11468 1.35354C7.74644 1.47141 7.37636 1.50415 6.99936 1.57808C6.82599 1.61208 6.64469 1.67932 6.4788 1.73833C6.3615 1.78002 6.22781 1.76866 6.10397 1.76061L6.09923 1.77769C6.07822 1.85081 6.07577 1.85535 6.03478 1.91821C5.49684 2.0091 4.9967 2.08197 4.47483 2.25518C4.38377 2.28539 4.18325 2.21125 4.09035 2.27713L4.25891 2.33435L4.28326 2.39055C4.12215 2.53588 3.76 2.42202 3.60763 2.47421C2.8749 2.72618 2.13057 2.88189 1.37262 2.94161C1.1482 2.9593 0.209934 3.80643 0.174131 3.99828C0.0238093 4.80359 0.0753064 6.34078 0.0752246 7.12292L0.0789851 30.0851C0.0791486 30.527 0.107553 31.9348 0.0584675 32.3026C-0.0291182 32.0186 0.00757299 29.7732 0.00789995 29.3188L0.00761433 6.53401C0.00753258 5.79004 0.0028733 5.04138 0.0144806 4.29753C0.0202842 3.92655 0.159408 3.70372 0.285003 3.35877Z" fill="#002A8B"/>
</svg>
