<svg width="173" height="176" viewBox="0 0 173 176" fill="none" xmlns="http://www.w3.org/2000/svg">
<path d="M127.569 167.242C123.752 168.491 120.113 168.909 115.588 167.614C109.4 165.843 105.679 162.035 103.533 157.487C101.747 153.704 100.992 149.03 100.401 146.361L100.4 146.355L96.2249 127.419C96.1057 126.879 95.9946 126.356 95.888 125.845C94.9375 126.293 93.9396 126.659 92.8961 126.937C88.8902 128.001 84.8805 127.575 81.1951 126.377C78.8553 125.617 76.8963 124.528 75.2579 123.13C74.4861 123.755 73.6491 124.331 72.7668 124.798L72.767 124.799C68.352 127.134 63.0841 127.389 58.8297 126.349L58.4215 126.244L58.4036 126.24L58.3864 126.235C55.7209 125.506 53.2818 124.192 51.2291 122.42C45.0686 127.426 36.2312 127.534 29.8052 123.705L29.4348 123.478L28.7765 123.048C25.5591 120.87 23.4626 118.241 22.1063 115.176C21.1896 113.105 20.6386 110.803 20.2318 108.935L19.8649 107.235L19.8645 107.233L17.605 97.062L17.604 97.0573L9.15499 58.9124L9.15415 58.9086C7.86627 53.0776 6.594 47.763 8.3779 39.9866C8.95976 37.4503 9.85137 34.5368 11.7019 31.6568C13.6253 28.6635 16.4631 24.8258 20.315 22.0937C24.3316 19.2451 30.4093 17.4914 35.2179 16.3127C40.1695 15.099 45.914 14.0408 48.8826 13.3889L64.014 10.024L64.0188 10.0229C72.974 8.03819 80.8951 6.8728 88.8964 7.85254C97.0399 8.84973 104.605 11.9767 113.149 17.4577L113.157 17.4629L123.084 23.8479L123.114 23.8682L123.145 23.8875C126.212 25.9026 129.906 28.4121 131.834 29.2263C132.437 29.4809 133.847 29.86 136.005 30.2833C138.136 30.7012 139.93 30.9734 141.784 31.3099C145.66 32.0134 149.586 32.9518 153.064 33.715C153.784 33.873 154.482 33.9948 155.483 34.1832C156.395 34.3549 157.517 34.575 158.661 34.8851L161.071 35.5383L162.608 37.5042C164.665 40.1351 165.075 43.1592 165.079 45.2576C165.083 47.4689 164.644 49.6355 164.075 51.4907C163.497 53.378 162.696 55.2323 161.764 56.8663C160.895 58.3907 159.636 60.2116 157.943 61.6012C156.821 62.5228 154.907 63.589 153.788 64.1947C152.582 64.847 150.788 65.7741 149.562 66.2078C140.363 69.4612 130.903 69.2179 122.338 67.6417L125.495 81.9321L135.933 129.038L138.319 139.747L138.319 139.749C138.411 140.161 138.524 140.624 138.666 141.203C138.8 141.754 138.96 142.402 139.108 143.061C139.389 144.305 139.734 146.005 139.809 147.71C139.981 151.663 139.33 155.589 137.239 159.131C135.147 162.673 132.04 165.108 128.574 166.83L128.086 167.072L127.569 167.242Z" fill="white" stroke="black" stroke-width="15"/>
</svg>
