<svg width="45" height="63" viewBox="0 0 45 63" fill="none" xmlns="http://www.w3.org/2000/svg">
<path d="M20.9384 0.0207226C26.6866 -0.25629 31.9562 2.2531 35.1148 6.99964C38.5338 12.1377 37.1214 17.3704 37.4749 23.0739C37.9898 23.8287 39.3002 24.9503 39.9279 25.784C40.6281 26.6885 41.4076 27.6191 41.9656 28.619C46.5338 36.8061 45.9453 46.2853 40.1915 53.7271C37.1827 57.6123 32.9933 60.4152 28.2538 61.7137C27.5802 61.8943 26.8102 61.9701 26.1196 62.0975C25.5027 62.2114 24.9152 62.3531 24.2911 62.433C4.42228 63.4844 -7.30416 41.2795 5.08843 25.8246C5.41274 25.4201 6.0452 24.6654 6.44561 24.3223C7.93635 23.045 7.61497 21.5648 7.61117 19.6596C7.60159 14.911 7.16192 11.0658 9.97131 6.87601C12.2785 3.43534 14.9329 1.50112 18.9454 0.411806C19.6276 0.229439 20.2144 0.0573058 20.9384 0.0207226ZM12.7463 19.7861C13.5478 19.1957 13.8745 19.1918 14.7745 18.837C17.2565 17.8585 19.7819 17.5393 22.4459 17.5402C25.6563 17.5663 29.4293 18.1277 32.2691 19.7208C32.6853 18.1233 32.4705 13.7455 32.0424 12.0645C31.8798 11.426 31.5556 10.7036 31.2187 10.1315C29.8362 7.75762 27.5549 6.04149 24.8907 5.37138C24.0973 5.16756 23.3252 5.10264 22.509 5.07054C20.7207 5.16858 20.1036 5.32927 18.4494 6.02175C12.9014 8.34424 12.2381 13.4151 12.5907 18.7514C12.6159 19.1332 12.6565 19.4063 12.7463 19.7861ZM19.9094 44.2865C20.2769 46.0202 19.5168 48.2693 21.1086 49.3389C21.7026 49.738 22.6033 49.8193 23.2986 49.7009C24.015 49.2623 24.7137 48.8448 24.8776 47.9319C25.0835 46.7858 24.8943 45.5363 25.0455 44.3462C25.8001 43.6548 26.6285 42.7662 27.0163 41.8008C27.7196 40.0495 27.3219 37.674 25.9381 36.3615C24.823 35.3037 22.9773 34.9488 21.5054 35.1973C18.7546 35.7272 17.2255 38.1284 17.6623 40.8925C17.883 42.2887 18.972 43.2877 19.9094 44.2865Z" fill="#002A8B"/>
</svg>
