<svg width="28" height="31" viewBox="0 0 28 31" fill="none" xmlns="http://www.w3.org/2000/svg">
<path d="M1.00904 0.00716085C1.76466 -0.0579939 2.19433 0.333751 2.84046 0.683123L5.20592 1.96577L13.1125 6.32532L22.0968 11.2518L25.3467 13.038C26.0286 13.4139 27.3289 13.98 27.7785 14.6498C28.1727 15.2371 27.73 15.9236 27.2233 16.2918C26.5772 16.7612 25.8567 17.1163 25.1489 17.4917C24.0868 18.1129 23.0308 18.7155 21.925 19.2573C21.5496 19.4413 21.1495 19.7283 20.7708 19.9334L18.7066 21.0593C18.4553 21.1987 18.191 21.3155 17.9548 21.4671C17.3182 21.757 16.5866 22.2336 15.9625 22.573L10.8304 25.401C8.02649 26.9329 5.12588 28.525 2.30182 30.0367C1.94974 30.2281 1.57629 30.529 1.15022 30.4089C0.266698 30.1599 0.0215885 29.6687 0.0125352 28.7874C0.00507724 28.0637 0.0120528 27.3215 0.0130175 26.59L0.0160969 22.3653L0.015392 9.30221L0.0163568 3.97232C0.0156147 3.07715 -0.0496513 1.87635 0.0858527 1.00775C0.162361 0.517305 0.612842 0.236761 1.00904 0.00716085Z" fill="#F8F0E2"/>
</svg>
