<svg width="30" height="30" viewBox="0 0 30 30" fill="none" xmlns="http://www.w3.org/2000/svg">
<path d="M13.4132 1.51662C13.6106 1.32566 13.6015 0.863371 13.7814 0.656407C13.8113 0.693575 13.8081 0.697028 13.8201 0.744002C14.276 0.197659 14.4706 0.0130824 15.1763 0.505008C15.3036 0.593769 15.1835 0.719573 15.2947 0.74685L15.36 0.703532C15.4864 0.936693 15.495 0.792708 15.5083 0.851079C15.6759 1.58519 15.3534 1.99064 16.2509 2.42395C16.3112 2.45308 16.6291 2.64878 16.6985 2.65816C17.103 2.71297 17.9101 2.78075 18.2693 2.5709C19.0769 2.09891 18.754 1.07917 20.0107 1.30578C20.14 1.32908 20.5172 1.74935 20.5721 1.87675C20.7258 2.23322 20.626 3.06131 20.5578 3.4436C20.5561 3.36153 20.5569 3.17465 20.5459 3.10233C20.4333 3.71195 20.6095 3.95304 21.0836 4.32627C21.3337 4.52319 21.3697 4.51219 21.6947 4.54353C21.7495 4.6625 21.7472 4.7204 21.8738 4.75951C22.1024 4.83009 22.5786 4.94118 22.7927 4.82228C23.2907 4.54574 23.822 4.07543 24.4435 4.20368C24.6061 4.23723 24.7159 4.39086 24.7978 4.5275C24.8374 4.53813 24.876 4.53882 24.8894 4.56565C24.9731 4.73377 25.0414 4.99484 25.0892 5.17813L25.086 5.01133C25.1456 5.22148 25.1051 5.2179 25.1267 5.39306C25.0419 5.60442 24.8749 5.892 24.7621 6.09925C24.4446 6.14606 24.4485 6.58651 24.3969 6.84011L24.3348 6.70696L24.2959 6.70782C24.3096 6.70854 24.3233 6.70923 24.3371 6.70995L24.2861 6.74278C24.2592 6.98716 24.2781 7.16923 24.4026 7.39239C24.5971 7.74103 24.7587 8.04671 25.0521 8.32213C25.1723 8.43504 25.3347 8.53907 25.441 8.6451C25.7522 8.68898 25.8631 8.6924 26.1725 8.68611C26.7491 8.67433 27.2549 8.45634 27.716 8.88257L27.7141 8.86068C27.9791 9.14174 27.9736 9.39425 27.974 9.77176C27.9984 9.63689 28.0195 9.51233 28.0374 9.37648C28.073 9.41845 28.0757 9.65148 28.057 9.69048C27.7794 10.2703 26.8411 10.4774 26.574 11.0358C26.5288 11.1303 26.5435 11.7339 26.5146 11.9037L26.5078 11.888C26.4207 12.6517 26.6207 12.838 27.0684 13.4033C27.3238 13.7258 29.1221 13.518 28.9973 14.8369C28.9931 14.8811 28.9848 14.9186 28.9482 14.9484C28.9405 14.9547 28.9057 14.9736 28.8982 14.9778C28.7614 15.0556 28.6881 15.2611 28.414 15.4065C27.9717 15.6413 27.2994 15.5994 26.9837 16.0063L26.9935 16.0054C26.721 16.3448 26.6698 16.5062 26.7076 16.949C26.6748 17.442 26.4954 17.8596 26.877 18.276C27.2546 18.6881 27.668 18.7522 28.0571 19.1872C28.2085 19.8776 28.1544 20.29 27.5987 20.7731C26.7441 20.8841 26.2006 20.651 25.4347 20.8108C25.1259 21.1032 24.9346 21.2798 24.756 21.6717C24.56 21.7077 24.6677 21.7287 24.5731 21.8064C23.522 22.6684 25.3994 23.5954 24.8767 24.5931C24.532 25.2511 23.834 24.9025 23.3149 24.74C23.0274 24.362 22.8535 24.5775 22.4169 24.3893C22.5212 24.3434 22.5487 24.3994 22.6894 24.3258C22.5834 24.1408 22.0656 24.3643 21.8999 24.3847C21.8694 24.3884 21.8855 24.3551 21.8169 24.3664C21.8469 24.4279 21.8946 24.4457 21.9576 24.4892C21.9169 24.5242 21.8298 24.5771 21.7753 24.5705L21.7644 24.4717C21.5644 24.5766 21.0696 24.9232 20.902 25.0694L20.9065 25.0945L20.9703 25.1143C20.8786 25.225 20.8943 25.2428 20.7418 25.2297C20.67 25.3083 20.6845 25.2731 20.6685 25.3651L20.6988 25.394C20.743 25.344 20.7425 25.3464 20.7673 25.2849C20.7569 25.5158 20.6459 25.6312 20.606 25.8355C20.5725 26.0068 20.5926 26.2626 20.5727 26.4464C20.572 26.3167 20.5584 26.0638 20.5324 25.9354L20.4795 25.9598C20.496 26.2593 20.5052 26.5422 20.551 26.8385C20.6022 27.1693 20.717 27.0027 20.7724 27.1635L20.7696 27.0893C20.7753 27.2241 20.7058 27.4221 20.6216 27.527L20.5904 27.5187C20.6063 27.3874 20.6466 27.2751 20.6024 27.1722C20.5843 27.1948 20.5346 27.2449 20.5388 27.2679C20.5927 27.5682 20.1534 27.9481 19.865 27.923C19.6888 27.9077 19.3917 27.8643 19.2012 27.8158C19.1543 27.5208 18.4785 26.6943 18.1673 26.5421C17.8907 26.4067 17.104 26.524 16.7697 26.5329C16.5166 26.5386 15.9746 26.9351 15.8586 27.1581C15.7992 27.2722 15.7341 27.5254 15.7026 27.5619C15.6961 27.4407 15.7023 27.4275 15.7665 27.3261L15.7211 27.2949C15.568 27.4566 15.7111 27.7163 15.715 27.9492C15.7632 28.6583 14.9264 29.5639 14.1507 29.117C13.4496 28.713 13.4877 27.9257 13.2424 27.2044C12.5482 26.7062 12.0181 26.6799 11.1898 26.7272C10.755 27.0016 10.6576 27.1216 10.379 27.5467L10.2847 27.5439L10.1683 27.6801L10.1802 27.6809C10.154 27.6212 10.1714 27.6097 10.1878 27.5297C10.0738 27.5712 9.98979 27.7574 9.90463 27.8251C9.66209 28.0177 9.24613 27.8555 8.96896 27.8536C8.85213 27.8653 8.88591 27.651 8.83311 27.5584C8.76856 27.4451 8.65002 27.4149 8.57388 27.3049C8.55422 27.3579 8.55551 27.355 8.51867 27.398C8.37785 27.1832 8.84094 25.9481 8.56407 25.4149C8.4739 25.1539 7.91676 24.6815 7.64805 24.6027C7.50133 24.5597 7.21662 24.5437 6.93352 24.4283L7.03524 24.3314C6.83519 24.1034 5.90752 24.6615 5.80218 24.9214C5.5869 25.1914 5.14757 25.3043 4.81615 25.2332C4.54605 25.1765 4.31068 25.0122 4.16436 24.7783C3.63688 23.9465 4.43551 23.3302 4.64563 22.6578C4.76706 22.2694 4.4389 21.6049 4.21367 21.268C3.61992 20.3816 2.63724 20.9471 1.7998 20.8006C1.17531 20.7051 0.952992 19.968 1.06315 19.4218C1.20862 18.7005 2.35507 18.731 2.4897 17.8911C2.56236 17.4381 2.43779 16.3813 2.08056 16.0886C1.57112 15.6712 0.527713 15.834 0.122606 15.1568C-0.00551223 14.9577 -0.0357147 14.5667 0.0437931 14.3428C0.604024 12.7649 1.98441 14.2222 2.44928 12.3425C2.53168 12.2693 2.59498 12.031 2.61674 11.9127C2.71358 11.3868 2.54827 10.7488 2.10966 10.4148C1.98855 10.3225 1.67804 10.2879 1.55558 10.1188C1.32245 9.79688 1.36311 10.003 1.27261 9.61438L1.2442 9.60016C1.24045 9.70767 1.23565 9.72028 1.1867 9.81633C1.17458 9.68048 1.13162 9.20171 1.19585 9.11204C1.86669 8.17528 2.90826 8.91269 3.73655 8.61455C4.17252 8.45763 4.5393 7.66024 4.7033 7.31039C5.05592 6.56581 4.48255 5.92001 4.20284 5.31185C3.80111 4.43852 4.96816 3.95199 5.62156 4.34612C5.8086 4.45893 5.90123 4.65381 6.12389 4.55884C6.4218 5.00281 6.94014 4.9641 7.38305 4.7466C7.74137 4.57066 8.13086 4.295 8.40283 4.00304C8.42196 3.9825 8.48305 3.76692 8.49846 3.72189L8.5721 3.74085C8.67925 3.33704 8.59376 2.45489 8.33387 2.12314C8.37228 1.41605 8.96883 0.913479 9.67542 1.05553C10.5523 1.23184 10.4391 2.37418 11.3768 2.48949C12.0945 2.57771 12.6485 2.42737 13.2384 2.0097C13.3098 1.85835 13.3944 1.68157 13.4132 1.51662ZM5.77032 16.4085C5.73207 16.7952 5.83556 17.5475 5.93616 17.9192C6.00838 17.9689 6.02994 17.9781 6.11162 18.0107C6.23427 18.1849 6.17913 18.4929 6.27041 18.6912C6.30679 18.7703 6.48366 18.8464 6.49344 18.8622C6.72133 19.231 6.86976 19.9119 7.38779 19.9281C7.40656 19.9412 7.68222 20.253 7.6942 20.2813C7.77959 20.4836 9.02374 21.7697 9.2386 21.5044C9.70795 20.925 10.1292 20.0366 10.5212 19.3644L11.9252 16.9203C12.0926 16.6335 12.2878 16.3616 12.4491 16.0718C12.4892 16 12.5424 15.9124 12.5486 15.8284C12.5494 15.8175 12.5493 15.8064 12.5497 15.7954C12.5653 15.3764 12.3611 14.9778 12.3709 14.5564C12.3768 14.3011 12.4665 14.0475 12.5201 13.7991C12.5451 13.6834 12.5572 13.5727 12.5491 13.4541C12.5422 13.3533 12.5118 13.2645 12.4658 13.1751C12.2847 12.823 12.0503 12.4968 11.8538 12.153C11.5452 11.6131 9.52459 7.95183 9.27481 7.75943C9.20489 7.70554 9.12328 7.68444 9.03661 7.69984C8.4662 7.8012 7.44876 9.13169 7.1337 9.62419C5.84093 11.6449 5.24807 14.0386 5.77032 16.4085ZM16.5084 15.8331C16.2715 16.0612 16.178 16.2094 15.9044 16.4141C15.5635 16.6692 14.8454 16.8119 14.5624 17.0046L14.5478 17.0143C14.3966 17.1171 13.8048 18.2697 13.6543 18.524L12.3768 20.7075C12.2465 20.9275 11.0275 22.7497 11.3299 22.9063C12.8711 23.704 15.3956 23.8277 16.9761 23.2315C19.2193 22.6209 21.1331 21.1539 22.3055 19.1465C22.9716 18.0042 23.3117 17.0825 23.539 15.7738C22.2278 15.752 20.9164 15.7451 19.605 15.7531C19.0077 15.7532 18.0252 15.7257 17.4464 15.7681C17.1333 15.7831 16.8206 15.8048 16.5084 15.8331ZM23.4531 13.0684C23.5314 12.337 23.3207 11.7196 23.0244 11.0607C22.97 10.9583 22.866 10.5671 22.796 10.4914C22.508 10.1797 22.4615 9.77383 22.2071 9.47368C21.6233 8.78513 21.1864 8.04193 20.4257 7.5266C20.2052 7.37715 19.9673 7.31236 19.9529 7.06498C19.865 6.97831 19.474 6.96501 19.4235 6.91691C19.2225 6.72543 19.0357 6.51096 18.7301 6.53681C18.7595 6.40388 18.7721 6.43877 18.725 6.33028C18.5266 6.30137 17.7391 6.1353 17.6064 6.03013L17.605 5.99661C17.7349 6.00158 17.811 6.01156 17.9397 6.0324L17.9489 5.99161C17.6547 5.82669 16.2577 5.7811 15.8406 5.58527C15.7622 5.54843 15.6484 5.56045 15.56 5.56858L15.619 5.51176C14.7554 5.44135 13.4564 5.54843 12.5483 5.55057L12.499 5.5955C12.5652 5.66256 12.7962 5.58777 12.907 5.65199C12.6837 5.73258 11.5236 5.86293 11.4103 6.02512L11.5338 6.07015C11.3491 6.16427 11.2018 6.01442 11.1417 6.37412C11.1264 6.46629 11.0988 6.6297 11.1305 6.71996C11.2003 6.91899 11.3436 7.12206 11.4388 7.31312C11.4668 7.38271 11.5746 7.58407 11.6167 7.64813C11.9919 8.21939 12.2959 8.8298 12.6774 9.39455C12.7903 9.56273 12.8727 9.86926 12.9822 10.0501C13.1549 10.3352 13.344 10.6053 13.4863 10.9084C13.4993 10.9133 13.6266 10.9654 13.6279 10.9683C13.7934 11.3585 14.0192 11.8131 14.2394 12.1688C14.4229 12.4652 14.5905 12.4293 14.8689 12.4627C14.9345 12.4706 15.2159 12.7342 15.3051 12.7611C15.413 12.816 15.6488 12.8179 15.7471 12.88C15.8352 12.9357 15.968 13.1001 16.0526 13.172C16.1078 13.2188 16.3874 13.5205 16.4411 13.5207C18.6817 13.5273 20.9278 13.5297 23.1699 13.5124C23.258 13.5118 23.333 13.4908 23.3934 13.4601L23.4751 13.4341C23.5358 13.3237 23.4842 13.2136 23.4531 13.0684Z" fill="#002A8B"/>
<path d="M23.3934 13.4601C23.333 13.4908 23.258 13.5118 23.1699 13.5124C20.9278 13.5297 18.6817 13.5273 16.4411 13.5207C16.3874 13.5205 16.1078 13.2188 16.0526 13.172C15.968 13.1001 15.8352 12.9357 15.7471 12.88C15.6488 12.8179 15.413 12.816 15.3051 12.7611C15.2159 12.7342 14.9345 12.4706 14.8689 12.4627C14.5905 12.4293 14.4229 12.4652 14.2394 12.1688C14.0192 11.8131 13.7934 11.3585 13.6279 10.9683C13.6266 10.9654 13.4993 10.9133 13.4863 10.9084C13.344 10.6053 13.1549 10.3352 12.9822 10.0501C12.8727 9.86926 12.7903 9.56273 12.6774 9.39455C12.2959 8.8298 11.9919 8.21939 11.6167 7.64813C11.5746 7.58407 11.4668 7.38271 11.4388 7.31312C11.3436 7.12206 11.2003 6.91899 11.1305 6.71996C11.0988 6.6297 11.1264 6.46629 11.1417 6.37412C11.2018 6.01442 11.3491 6.16427 11.5338 6.07015L11.4103 6.02512C11.5236 5.86293 12.6837 5.73258 12.907 5.65199C12.7962 5.58777 12.5652 5.66256 12.499 5.5955L12.5483 5.55057C13.4564 5.54843 14.7554 5.44135 15.619 5.51176L15.56 5.56858C15.6484 5.56045 15.7622 5.54843 15.8406 5.58527C16.2577 5.7811 17.6547 5.82669 17.9489 5.99161L17.9397 6.0324C17.811 6.01156 17.7349 6.00158 17.605 5.99661L17.6064 6.03013C17.7391 6.1353 18.5266 6.30137 18.725 6.33028C18.7721 6.43877 18.7595 6.40388 18.7301 6.53681C19.0357 6.51096 19.2225 6.72543 19.4235 6.91691C19.474 6.96501 19.865 6.97831 19.9529 7.06498C19.9673 7.31236 20.2052 7.37715 20.4257 7.5266C21.1864 8.04193 21.6233 8.78513 22.2071 9.47368C22.4615 9.77383 22.508 10.1797 22.796 10.4914C22.866 10.5671 22.97 10.9583 23.0244 11.0607C23.3207 11.7196 23.5314 12.337 23.4531 13.0684C23.0867 10.8409 21.6029 8.55757 19.7528 7.27731C17.7338 5.88016 15.3493 5.33519 12.9343 5.77814C12.667 5.85504 11.0551 6.15134 11.3018 6.61862C12.0137 7.96689 12.8537 9.26058 13.6186 10.5842C13.7769 10.858 14.3695 12.0673 14.5935 12.1929C15.3668 12.6268 15.9289 12.5651 16.4929 13.3825C16.9691 13.5159 18.1327 13.4749 18.6785 13.4748L21.9917 13.4718C22.4223 13.471 22.9798 13.4474 23.3934 13.4601Z" fill="#002A8B"/>
<path d="M5.77032 16.4085C6.06349 17.3871 6.68749 19.1527 7.38779 19.9281C6.86976 19.9119 6.72133 19.231 6.49344 18.8622C6.48366 18.8464 6.30679 18.7703 6.27041 18.6912C6.17913 18.4929 6.23427 18.1849 6.11162 18.0107C6.02994 17.9781 6.00838 17.9689 5.93616 17.9192C5.83556 17.5475 5.73207 16.7952 5.77032 16.4085Z" fill="#002A8B"/>
<path d="M14.2193 0.0102907C16.4089 -0.161175 15.0257 1.85984 16.6075 2.3657C17.2654 2.57611 18.1062 2.62223 18.5738 2.02127C18.8084 1.71984 18.8869 1.41459 19.1649 1.10775C19.6087 1.0404 20.0938 0.985534 20.4722 1.28094C21.4698 2.05969 20.0314 3.33722 21.1458 4.10777C21.5111 4.36039 22.0575 4.72776 22.5475 4.65504C23.2844 4.46971 23.9587 3.56751 24.7707 4.15794C25.1185 4.41082 25.3812 4.99366 25.1267 5.39306C25.1051 5.2179 25.1456 5.22148 25.086 5.01133L25.0892 5.17813C25.0414 4.99484 24.9731 4.73377 24.8894 4.56565C24.876 4.53882 24.8374 4.53813 24.7978 4.5275C24.7159 4.39086 24.6061 4.23723 24.4435 4.20368C23.822 4.07543 23.2907 4.54574 22.7927 4.82228C22.5786 4.94118 22.1024 4.83009 21.8738 4.75951C21.7472 4.7204 21.7495 4.6625 21.6947 4.54353C21.3697 4.51219 21.3337 4.52319 21.0836 4.32627C20.6095 3.95304 20.4333 3.71195 20.5459 3.10233C20.5569 3.17465 20.5561 3.36153 20.5578 3.4436C20.626 3.06131 20.7258 2.23322 20.5721 1.87675C20.5172 1.74935 20.14 1.32908 20.0107 1.30578C18.754 1.07917 19.0769 2.09891 18.2693 2.5709C17.9101 2.78075 17.103 2.71297 16.6985 2.65816C16.6291 2.64878 16.3112 2.45308 16.2509 2.42395C15.3534 1.99064 15.6759 1.58519 15.5083 0.851079C15.495 0.792708 15.4864 0.936693 15.36 0.703532L15.2947 0.74685C15.1835 0.719573 15.3036 0.593769 15.1763 0.505008C14.4706 0.0130824 14.276 0.197659 13.8201 0.744002C13.8081 0.697028 13.8113 0.693575 13.7814 0.656407C13.6015 0.863371 13.6106 1.32566 13.4132 1.51662C13.5176 0.719409 13.597 0.520634 14.2193 0.0102907Z" fill="#002A8B"/>
<path d="M15.715 27.9492C15.7111 27.7163 15.568 27.4566 15.7211 27.2949L15.7665 27.3261C15.7023 27.4275 15.6961 27.4407 15.7026 27.5619C15.7341 27.5254 15.7992 27.2722 15.8586 27.1581C15.9746 26.9351 16.5166 26.5386 16.7697 26.5329C17.104 26.524 17.8907 26.4067 18.1673 26.5421C18.4785 26.6943 19.1543 27.5208 19.2012 27.8158C19.3917 27.8643 19.6888 27.9077 19.865 27.923C20.1534 27.9481 20.5927 27.5682 20.5388 27.2679C20.5346 27.2449 20.5843 27.1948 20.6024 27.1722C20.6466 27.2751 20.6063 27.3874 20.5904 27.5187L20.6216 27.527C20.7058 27.4221 20.7753 27.2241 20.7696 27.0893L20.7724 27.1635C20.717 27.0027 20.6022 27.1693 20.551 26.8385C20.5052 26.5422 20.496 26.2593 20.4795 25.9598L20.5324 25.9354C20.5584 26.0638 20.572 26.3167 20.5727 26.4464C20.5926 26.2626 20.5725 26.0068 20.606 25.8355C20.6459 25.6312 20.7569 25.5158 20.7673 25.2849C20.7425 25.3464 20.743 25.344 20.6988 25.394L20.6685 25.3651C20.6845 25.2731 20.67 25.3083 20.7418 25.2297C20.8943 25.2428 20.8786 25.225 20.9703 25.1143L20.9065 25.0945L20.902 25.0694C21.0696 24.9232 21.5644 24.5766 21.7644 24.4717L21.7753 24.5705C21.8298 24.5771 21.9169 24.5242 21.9576 24.4892C21.8946 24.4457 21.8469 24.4279 21.8169 24.3664C21.8855 24.3551 21.8694 24.3884 21.8999 24.3847C22.0656 24.3643 22.5834 24.1408 22.6894 24.3258C22.5487 24.3994 22.5212 24.3434 22.4169 24.3893C22.8535 24.5775 23.0274 24.362 23.3149 24.74C23.834 24.9025 24.532 25.2511 24.8767 24.5931C25.3994 23.5954 23.522 22.6684 24.5731 21.8064C24.6677 21.7287 24.56 21.7077 24.756 21.6717C24.5972 22.0204 24.4002 22.3368 24.5594 22.7284C24.8076 23.3387 25.4643 23.8379 25.1318 24.5572C24.835 25.198 24.3181 25.4409 23.6656 25.0998C23.046 24.7759 22.6117 24.423 21.8734 24.6812C21.0671 24.9485 20.5051 25.6056 20.714 26.4938C20.7273 26.5506 20.8474 26.6439 20.8487 26.6503C20.9643 27.2011 20.7014 27.8883 20.1571 28.1102C19.9296 28.203 19.5439 28.2198 19.3131 28.1065C18.5694 27.6761 18.696 26.6831 17.5113 26.6923C17.2172 26.694 16.9254 26.7442 16.6477 26.841C15.9525 27.081 15.8864 27.2573 15.715 27.9492Z" fill="#002A8B"/>
<path d="M25.441 8.6451C25.3347 8.53907 25.1723 8.43504 25.0521 8.32213C24.7587 8.04671 24.5971 7.74103 24.4026 7.39239C24.2781 7.16923 24.2592 6.98716 24.2861 6.74278L24.3371 6.70995C24.3233 6.70923 24.3096 6.70854 24.2959 6.70782L24.3348 6.70696L24.3969 6.84011C24.4485 6.58651 24.4446 6.14606 24.7621 6.09925C24.5819 6.50856 24.3835 6.72339 24.5669 7.16989C24.7604 7.64112 25.0984 8.20547 25.5839 8.40957C26.2909 8.70669 26.9843 8.06112 27.6566 8.50905C27.8654 8.64819 27.9469 8.7162 28.0488 8.9543C28.1374 9.17772 28.2032 9.70908 28.0687 9.91133C27.5527 10.6871 26.4956 10.6445 26.6537 11.8872C26.6655 12.305 26.8839 13.0927 27.3146 13.2685C27.952 13.5287 28.8239 13.4556 29.1427 14.2453C29.3252 14.6973 29.042 15.1552 28.772 15.4901C28.5049 15.5724 28.37 15.7136 28.1826 15.7605C27.8453 15.8447 27.6049 15.8305 27.251 15.9443C26.9183 16.2875 26.8354 16.4945 26.7076 16.949C26.6698 16.5062 26.721 16.3448 26.9935 16.0054L26.9837 16.0063C27.2994 15.5994 27.9717 15.6413 28.414 15.4065C28.6881 15.2611 28.7614 15.0556 28.8982 14.9778C28.9057 14.9736 28.9405 14.9547 28.9482 14.9484C28.9848 14.9186 28.9931 14.8811 28.9973 14.8369C29.1221 13.518 27.3238 13.7258 27.0684 13.4033C26.6207 12.838 26.4207 12.6517 26.5078 11.888L26.5146 11.9037C26.5435 11.7339 26.5288 11.1303 26.574 11.0358C26.8411 10.4774 27.7794 10.2703 28.057 9.69048C28.0757 9.65148 28.073 9.41845 28.0374 9.37648C28.0195 9.51233 27.9984 9.63689 27.974 9.77176C27.9736 9.39425 27.9791 9.14174 27.7141 8.86068L27.716 8.88257C27.2549 8.45634 26.7491 8.67433 26.1725 8.68611C25.8631 8.6924 25.7522 8.68898 25.441 8.6451Z" fill="#002A8B"/>
<path d="M8.33387 2.12314C8.59376 2.45489 8.67925 3.33704 8.5721 3.74085L8.49846 3.72189C8.48305 3.76692 8.42196 3.9825 8.40283 4.00304C8.13086 4.295 7.74137 4.57066 7.38305 4.7466C6.94014 4.9641 6.4218 5.00281 6.12389 4.55884C5.90123 4.65381 5.8086 4.45893 5.62156 4.34612C4.96816 3.95199 3.80111 4.43852 4.20284 5.31185C4.48255 5.92001 5.05592 6.56581 4.7033 7.31039C4.5393 7.66024 4.17252 8.45763 3.73655 8.61455C2.90826 8.91269 1.86669 8.17528 1.19585 9.11204C1.13162 9.20171 1.17458 9.68048 1.1867 9.81633C1.23565 9.72028 1.24045 9.70767 1.2442 9.60016L1.27261 9.61438C1.36311 10.003 1.32245 9.79688 1.55558 10.1188C1.67804 10.2879 1.98855 10.3225 2.10966 10.4148C2.54827 10.7488 2.71358 11.3868 2.61674 11.9127C2.59498 12.031 2.53168 12.2693 2.44928 12.3425C2.50228 11.9711 2.52646 11.6841 2.46797 11.3035C2.33972 10.4692 1.21072 10.5118 1.05722 9.78713C0.994262 9.48994 1.08388 8.94952 1.26895 8.71462C1.81622 8.02014 2.73329 8.58156 3.44084 8.46763C3.75998 8.41457 4.01592 8.20073 4.18726 7.9541C4.79201 7.08368 4.80554 6.68859 4.25547 5.79545C4.1473 5.61983 4.03245 5.37686 3.99759 5.16523C3.95157 4.89687 4.01586 4.62128 4.17587 4.40099C5.03534 3.21076 6.07595 4.79759 6.94497 4.65111C7.30213 4.59087 8.09319 4.16079 8.31898 3.81597C8.61162 3.36903 8.42927 2.62857 8.33387 2.12314Z" fill="#002A8B"/>
<path d="M5.80218 24.9214C5.90752 24.6615 6.83519 24.1034 7.03524 24.3314L6.93352 24.4283C7.21662 24.5437 7.50133 24.5597 7.64805 24.6027C7.91676 24.6815 8.4739 25.1539 8.56407 25.4149C8.84094 25.9481 8.37785 27.1832 8.51867 27.398C8.55551 27.355 8.55422 27.3579 8.57388 27.3049C8.65002 27.4149 8.76856 27.4451 8.83311 27.5584C8.88591 27.651 8.85213 27.8653 8.96896 27.8536C9.24613 27.8555 9.66209 28.0177 9.90463 27.8251C9.98979 27.7574 10.0738 27.5712 10.1878 27.5297C10.1714 27.6097 10.154 27.6212 10.1802 27.6809L10.1683 27.6801L10.2847 27.5439L10.379 27.5467C10.2865 27.7484 10.1422 28.0538 9.93375 28.1274C9.67828 28.2175 9.15738 28.18 8.92138 28.0566C7.82438 27.4831 8.7559 26.3874 8.39996 25.5292C8.27039 25.2168 7.70791 24.8428 7.41705 24.721C6.75664 24.4445 6.36548 24.6914 5.80218 24.9214Z" fill="#002A8B"/>
</svg>
