<svg width="28" height="38" viewBox="0 0 28 38" fill="none" xmlns="http://www.w3.org/2000/svg">
<path d="M12.6784 0H15.0903C15.2245 0.194494 15.9238 0.474014 16.1706 0.627919C17.4727 1.43993 18.0256 2.60145 18.1396 4.11599C19.4518 4.18693 20.8841 4.15079 22.1925 4.14822C23.9895 4.14471 25.1122 4.0264 26.5537 5.3117C28.1011 6.69134 27.9192 8.34457 27.9191 10.2192L27.9184 30.39C27.9192 31.2568 27.9672 33.1586 27.861 33.9137C27.7378 34.749 27.376 35.5309 26.819 36.1654C26.0873 36.9827 24.9013 37.6115 23.8073 37.6372C22.4707 37.6686 21.1 37.6512 19.7609 37.6509L6.99216 37.6519C5.11108 37.654 2.94446 37.9124 1.44106 36.5348C-0.141191 35.0851 0.00394377 33.4632 0.00724786 31.5144L0.0114498 28.0583L0.00912447 11.0197C0.00855339 10.0037 -0.032156 8.76247 0.0631322 7.77451C0.135088 7.02816 0.727253 5.97693 1.22821 5.4371C1.80381 4.81682 2.7033 4.36347 3.53801 4.20724C4.15473 4.0918 4.88041 4.16041 5.51561 4.14707C6.89516 4.11803 8.40798 4.20337 9.77469 4.13904C9.99113 2.5751 10.3026 1.56806 11.7388 0.633899C12.0667 0.420659 12.4142 0.359234 12.655 0.0321291L12.6784 0ZM25.0228 33.9143C25.1894 33.2139 25.138 31.0131 25.1381 30.1871L25.1381 13.6649C25.1381 11.9516 25.1566 10.2332 25.1171 8.52201C25.1001 7.78132 24.8152 7.24447 24.0588 7.09917C23.29 6.95151 22.5131 6.97549 21.7346 6.97476L19.4174 6.97888C19.0531 6.98263 18.481 7.01796 18.1401 6.97235C18.1333 7.6142 18.2086 8.93816 17.6635 9.45266C17.5302 9.57858 16.9057 9.73701 16.699 9.74069C14.9353 9.7725 13.1608 9.74803 11.3965 9.76084C11.0561 9.76328 10.3339 9.57756 10.1259 9.30691C9.71489 8.77214 9.78999 7.608 9.79023 6.97745C8.23731 7.00009 6.49692 6.91896 4.9668 6.9923C4.39968 7.0222 3.5817 6.98981 3.18961 7.44892C2.67177 8.05524 2.78965 9.17752 2.78961 9.94134L2.78941 31.8063C2.78888 33.0547 2.52659 34.6752 4.30619 34.7952C5.42162 34.8703 6.57887 34.8282 7.69977 34.8277L20.2994 34.8275C21.4286 34.828 22.572 34.8511 23.6996 34.7963C24.353 34.7645 24.6936 34.4483 25.0228 33.9143ZM13.1876 5.6373C13.5637 5.64509 14.3327 5.66969 14.6919 5.64174C15.5934 4.97089 15.3734 5.01584 15.4163 3.9382L15.4063 3.97227C15.3942 3.53717 15.3632 3.33642 15.0352 3.00269C14.8824 2.84721 14.72 2.79685 14.5928 2.67203L14.5035 2.67982C13.9652 2.89982 13.2585 2.3688 12.8302 3.24355C12.76 3.38683 12.7091 3.554 12.6169 3.68029L12.5901 3.40701L12.5587 3.39679C12.4115 3.76739 12.3332 4.66973 12.5199 5.04705C12.5613 5.13071 13.0714 5.54062 13.1876 5.6373Z" fill="#F8F0E2"/>
<path d="M19.2477 16.731L19.2756 16.7287C19.9479 16.6744 20.1554 16.7613 20.6647 17.1936C20.9141 17.8779 21.0653 18.4808 20.5071 19.0691C18.2165 21.4768 15.802 23.7786 13.4701 26.1509C12.3901 27.2496 10.6811 25.2382 10.0293 24.5259C8.94927 23.4551 8.13475 23.1449 8.54319 21.4726C8.76698 21.2849 9.00781 21.1008 9.23832 20.9198C10.756 20.7246 11.3274 21.8635 12.2864 22.7979C13.2364 23.0338 13.0024 22.5877 13.5631 22.0478C14.0549 21.5744 14.5456 21.1011 15.0208 20.6069C15.2539 20.3645 15.5612 20.1406 15.7983 19.8971C16.2866 19.2857 16.906 18.7796 17.4327 18.2303C18.1591 17.4731 18.2844 17.1802 19.2477 16.731Z" fill="#F8F0E2"/>
<path d="M14.5035 2.67982L14.5928 2.67203C14.72 2.79685 14.8824 2.84721 15.0352 3.00269C15.3632 3.33642 15.3942 3.53717 15.4063 3.97227L15.4163 3.9382C15.3734 5.01584 15.5934 4.97089 14.6919 5.64174C14.3327 5.66969 13.5637 5.64509 13.1876 5.6373C13.0714 5.54062 12.5613 5.13071 12.5199 5.04705C12.3332 4.66973 12.4115 3.76739 12.5587 3.39679L12.5901 3.40701L12.6169 3.68029C12.7091 3.554 12.76 3.38683 12.8302 3.24355C13.2585 2.3688 13.9652 2.89982 14.5035 2.67982ZM12.7195 4.63379C12.952 5.28601 13.6483 5.64827 14.3158 5.46422C15.0209 5.26981 15.434 4.53973 15.2376 3.83522C15.0412 3.13071 14.3099 2.71966 13.606 2.91805C13.2537 3.01734 12.9583 3.2583 12.7903 3.58349C12.6223 3.90869 12.5967 4.28899 12.7195 4.63379Z" fill="#F8F0E2"/>
</svg>
