<svg width="20" height="21" viewBox="0 0 20 21" fill="none" xmlns="http://www.w3.org/2000/svg">
<path d="M4.46322 7.02656C4.35333 6.76256 4.37357 5.0327 4.40909 4.69168C4.85415 0.419545 9.90448 -1.49487 13.1225 1.3438C13.2471 1.45369 13.4471 1.6393 13.5276 1.77203C13.5423 2.00288 13.6175 1.93937 13.6744 2.11019C13.7828 2.43532 14.2415 2.90245 14.1771 3.23831C14.2441 3.34303 14.343 3.33856 14.3879 3.41931C14.4428 3.51812 14.3971 3.75317 14.5139 3.81303C14.5219 3.76681 14.5158 3.78318 14.5627 3.74644L14.6429 3.8175C14.9392 4.99367 14.9145 6.80658 14.5044 7.97174C14.2726 8.63054 13.6508 9.5682 13.1043 10.0091C12.6574 10.016 12.5349 10.4627 12.1212 10.5096C12.1149 10.5103 11.9689 10.7039 11.9531 10.725C11.5539 10.7494 11.2702 11.0114 10.8994 11.0235C10.8125 11.0263 10.7248 10.9816 10.6386 11.0413L10.6474 11.0685C10.7568 11.0688 10.8402 11.0674 10.9489 11.0835L10.9521 11.0917L10.924 11.0762L10.9113 11.1146C10.8042 11.1575 10.1131 11.1762 9.94633 11.2018C9.62858 11.2505 8.31102 11.2308 8.11482 11.0242L8.17465 11.0019L8.16877 10.9749C8.13455 10.9594 8.06428 10.952 8.02811 10.9593C7.84929 10.9954 7.68604 10.8764 7.47286 10.8137L7.51177 10.7865C7.40594 10.6096 7.12994 10.6984 7.03469 10.6018C7.01358 10.518 7.0109 10.4889 6.95189 10.4221C6.86653 10.3992 6.80496 10.3563 6.74735 10.381C6.72019 10.2357 6.38049 10.0715 6.25955 10.0072C6.26283 10.0089 6.22037 9.88873 6.21625 9.88564C6.15949 9.84295 5.98205 9.75265 5.95902 9.68957C5.91761 9.56498 5.74093 9.48588 5.6821 9.3861C5.43475 8.96665 5.12895 8.63146 4.98506 8.15834C4.92618 7.96473 4.62637 7.71881 4.63678 7.47274C4.64184 7.35236 4.55352 7.13387 4.47609 7.04165L4.46322 7.02656Z" fill="#F8F0E2"/>
<path d="M19.0339 19.1665C19.0233 19.203 19.0043 19.2377 18.9871 19.2714C18.8099 19.6183 18.4234 19.937 18.0552 20.051C17.6167 20.1867 15.5505 20.1152 14.9387 20.1152L3.81293 20.1162C3.07144 20.1172 2.31895 20.1254 1.57778 20.1112C1.32851 20.0978 1.02548 20.0063 0.809202 19.887C0.0946942 19.4929 -0.231595 18.5156 0.181895 17.7935C0.732208 16.8325 1.81388 16.2816 2.73515 15.7361C2.93198 15.6195 3.26978 15.5438 3.47585 15.4266C4.11986 15.1352 4.816 14.8379 5.4992 14.6552C5.97152 14.5288 6.46257 14.3923 6.93686 14.2737C7.15088 14.2202 7.46904 14.1851 7.69708 14.1418C7.93069 14.0975 8.2509 14.0234 8.47638 14.0042C10.1394 13.853 11.7241 14.1021 13.3196 14.5588C14.1844 14.8064 14.9617 15.0313 15.7712 15.4387C16.0328 15.5703 16.3456 15.6669 16.6041 15.8062C16.8937 15.9624 17.1619 16.1655 17.4516 16.3257C17.5059 16.6336 17.5798 16.5272 17.8142 16.7041C18.1819 16.9817 18.4784 17.3272 18.7991 17.6535C18.872 17.7273 18.8517 17.876 18.9475 17.9572C18.955 17.9212 18.9569 17.8962 18.9731 17.8636C19.0942 18.2073 19.0111 18.8373 19.0339 19.1665Z" fill="#F8F0E2"/>
<path d="M4.46322 7.02656L4.47609 7.04165C4.55352 7.13387 4.64184 7.35236 4.63678 7.47274C4.62637 7.71881 4.92618 7.96473 4.98506 8.15834C5.12895 8.63146 5.43475 8.96665 5.6821 9.3861C5.74093 9.48588 5.91761 9.56498 5.95902 9.68957C5.98205 9.75265 6.15949 9.84295 6.21625 9.88564C6.22037 9.88873 6.26283 10.0089 6.25955 10.0072C6.38049 10.0715 6.72019 10.2357 6.74735 10.381C6.80496 10.3563 6.86653 10.3992 6.95189 10.4221C7.0109 10.4889 7.01358 10.518 7.03469 10.6018C7.12994 10.6984 7.40594 10.6096 7.51177 10.7865L7.47286 10.8137C7.68604 10.8764 7.84929 10.9954 8.02811 10.9593C8.06428 10.952 8.13455 10.9594 8.16877 10.9749L8.17465 11.0019L8.11482 11.0242C8.31102 11.2308 9.62858 11.2505 9.94633 11.2018C10.1131 11.1762 10.8042 11.1575 10.9113 11.1146L10.924 11.0762L10.9521 11.0917L10.9489 11.0835C10.8402 11.0674 10.7568 11.0688 10.6474 11.0685L10.6386 11.0413C10.7248 10.9816 10.8125 11.0263 10.8994 11.0235C11.2702 11.0114 11.5539 10.7494 11.9531 10.725C11.9689 10.7039 12.1149 10.5103 12.1212 10.5096C12.5349 10.4627 12.6574 10.016 13.1043 10.0091C12.5924 10.6108 11.4451 11.1153 10.6742 11.2449C10.4805 11.2797 10.2657 11.3507 10.0708 11.3627C8.69297 11.4474 7.2475 11.028 6.19274 10.1223C5.31557 9.36915 4.5816 8.17904 4.46322 7.02656Z" fill="#F8F0E2"/>
<path d="M17.4516 16.3257C18.4282 16.871 19.6164 17.9375 19.0339 19.1665C19.0111 18.8373 19.0942 18.2073 18.9731 17.8636C18.9569 17.8962 18.955 17.9212 18.9475 17.9572C18.8517 17.876 18.872 17.7273 18.7991 17.6535C18.4784 17.3272 18.1819 16.9817 17.8142 16.7041C17.5798 16.5272 17.5059 16.6336 17.4516 16.3257Z" fill="#F8F0E2"/>
<path d="M13.5276 1.77203C13.9112 2.15101 14.5904 3.28325 14.6429 3.8175L14.5627 3.74644C14.5158 3.78318 14.5219 3.76681 14.5139 3.81303C14.3971 3.75317 14.4428 3.51812 14.3879 3.41931C14.343 3.33856 14.2441 3.34303 14.1771 3.23831C14.2415 2.90245 13.7828 2.43532 13.6744 2.11019C13.6175 1.93937 13.5423 2.00288 13.5276 1.77203Z" fill="#F8F0E2"/>
</svg>
