<svg width="45" height="48" viewBox="0 0 45 48" fill="none" xmlns="http://www.w3.org/2000/svg">
<path d="M10.4609 16.5114C10.1474 15.8558 10.2853 11.1729 10.416 10.3296C10.9402 7.10266 12.7184 4.2136 15.3631 2.29183C17.6925 0.594714 21.331 -0.360031 24.2016 0.126973C26.7006 0.550921 30.2237 2.09872 31.7253 4.18421C31.7299 5.04554 33.4001 6.66995 33.2435 7.62709C33.3957 7.86237 33.6656 7.90412 33.7142 8.01936C33.9345 8.54284 33.6031 8.58957 34.0747 8.97992L34.0632 8.84663L34.0922 8.83283C34.2885 8.90218 34.1652 8.95341 34.3571 9.11286C34.7659 10.8578 34.7328 11.511 34.7615 13.2298C34.8071 15.9568 34.5054 18.3907 33.0071 20.7546C32.4189 21.6825 31.5975 22.8088 30.7265 23.5061C30.261 23.5119 29.3133 24.0259 29.0924 24.4609C29.0191 24.6051 28.7688 24.5968 28.621 24.6101C28.3343 24.6357 28.1857 24.9627 28.0217 25.1865C27.0895 25.2398 26.422 25.8602 25.5554 25.8853C25.3514 25.8912 25.145 25.7875 24.9439 25.927L24.9645 25.9908C25.221 25.9916 25.4167 25.9881 25.6714 26.0259L25.679 26.0451L25.6131 26.0087L25.5832 26.0988C25.1415 26.276 24.5623 26.1814 24.0899 26.2062C23.8541 26.2186 23.549 26.307 23.337 26.3081C22.2072 26.3133 19.9639 26.5066 19.0067 25.8847L19.1294 25.7744C18.9399 25.6608 18.6396 25.8098 18.5013 25.7587C18.1349 25.6234 17.9072 25.5029 17.5171 25.3971C17.5478 25.3627 17.5694 25.3417 17.6023 25.31C17.3693 25.109 16.8348 24.8775 16.5459 24.9922C16.4792 24.8104 16.4122 24.6496 16.2989 24.487C16.3007 24.4896 15.9413 24.3555 15.9135 24.3386C15.8854 24.3508 15.8573 24.3629 15.8292 24.375C15.6921 24.195 15.4486 23.9433 15.2721 23.891C15.3264 23.7816 15.3226 23.8365 15.2853 23.7212L14.6477 23.5224C14.5996 23.065 14.2811 23.1051 13.9718 22.7555C13.0524 21.7159 12.1553 20.4943 11.6847 19.1654C11.518 18.6947 10.859 18.137 10.868 17.5578C10.8725 17.269 10.6839 16.7763 10.491 16.5468L10.4609 16.5114Z" fill="#002A8B"/>
<path d="M44.6329 44.9826C44.3609 45.7957 43.3285 46.6854 42.5396 46.987C42.161 47.1317 41.6745 47.2067 41.2644 47.2083C39.0541 47.2167 36.8431 47.2076 34.6325 47.2075L9.74176 47.209C7.75076 47.2095 5.75081 47.241 3.76101 47.1956C2.21687 47.1604 0.781609 46.1828 0.229762 44.7231C-0.111701 43.8045 -0.0712069 42.7874 0.342184 41.8988C0.560007 41.4314 0.796727 41.2321 1.09812 40.8344C2.37368 39.1513 4.56703 37.9904 6.38041 36.9492C6.70087 36.7651 7.7495 36.3687 8.18796 36.1597C9.18614 35.7412 10.2955 35.1767 11.3215 34.8597C11.9447 34.6672 13.3663 34.2286 13.9488 34.1509C15.1343 33.9928 16.5632 35.4316 17.6616 35.8829C20.8389 37.1868 24.3683 37.2106 27.5096 35.7976C28.2714 35.455 30.1258 34.0094 30.8235 34.1259C33.5857 34.587 36.1888 35.9004 38.7405 37.0057C39.4977 37.3337 40.3216 38.0069 41.1018 38.3963C41.0851 38.5311 41.0404 38.6159 41.1153 38.7569C41.1872 38.8924 41.9001 39.1335 41.9187 39.205C42.0314 39.6381 42.4785 39.712 42.755 39.9695C43.0806 40.4964 43.5918 40.8608 44.0073 41.3156C44.1613 41.4874 44.222 41.9281 44.4143 42.0619L44.4886 41.9221C44.7664 42.6275 44.589 44.25 44.6329 44.9826Z" fill="#002A8B"/>
<path d="M10.4609 16.5114L10.491 16.5468C10.6839 16.7763 10.8725 17.269 10.868 17.5578C10.859 18.137 11.518 18.6947 11.6847 19.1654C12.1553 20.4943 13.0524 21.7159 13.9718 22.7555C14.2811 23.1051 14.5996 23.065 14.6477 23.5224L15.2853 23.7212C15.3226 23.8365 15.3264 23.7816 15.2721 23.891C15.4486 23.9433 15.6921 24.195 15.8292 24.375C15.8573 24.3629 15.8854 24.3508 15.9135 24.3386C15.9413 24.3555 16.3007 24.4896 16.2989 24.487C16.4122 24.6496 16.4792 24.8104 16.5459 24.9922C16.8348 24.8775 17.3693 25.109 17.6023 25.31C17.5694 25.3417 17.5478 25.3627 17.5171 25.3971C17.9072 25.5029 18.1349 25.6234 18.5013 25.7587C18.6396 25.8098 18.9399 25.6608 19.1294 25.7744L19.0067 25.8847C19.9639 26.5066 22.2072 26.3133 23.337 26.3081C23.549 26.307 23.8541 26.2186 24.0899 26.2062C24.5623 26.1814 25.1415 26.276 25.5832 26.0988L25.6131 26.0087L25.679 26.0451L25.6714 26.0259C25.4167 25.9881 25.221 25.9916 24.9645 25.9908L24.9439 25.927C25.145 25.7875 25.3514 25.8912 25.5554 25.8853C26.422 25.8602 27.0895 25.2398 28.0217 25.1865C28.1857 24.9627 28.3343 24.6357 28.621 24.6101C28.7688 24.5968 29.0191 24.6051 29.0924 24.4609C29.3133 24.0259 30.261 23.5119 30.7265 23.5061C29.5279 24.9165 26.8338 26.1009 25.0273 26.4046C24.5729 26.4861 24.0691 26.6528 23.6122 26.6809C20.381 26.8793 16.9906 25.8958 14.517 23.7718C12.46 22.0055 10.7386 19.2143 10.4609 16.5114Z" fill="#002A8B"/>
<path d="M41.1018 38.3963C43.3038 39.7274 45.991 42.1619 44.6329 44.9826C44.589 44.25 44.7664 42.6275 44.4886 41.9221L44.4143 42.0619C44.222 41.9281 44.1613 41.4874 44.0073 41.3156C43.5918 40.8608 43.0806 40.4964 42.755 39.9695C42.4785 39.712 42.0314 39.6381 41.9187 39.205C41.9001 39.1335 41.1872 38.8924 41.1153 38.7569C41.0404 38.6159 41.0851 38.5311 41.1018 38.3963Z" fill="#002A8B"/>
<path d="M31.7253 4.18421C32.7288 5.20566 34.171 7.69422 34.3571 9.11286C34.1652 8.95341 34.2885 8.90218 34.0922 8.83283L34.0632 8.84663L34.0747 8.97992C33.6031 8.58957 33.9345 8.54284 33.7142 8.01936C33.6656 7.90412 33.3957 7.86237 33.2435 7.62709C33.4001 6.66995 31.7299 5.04554 31.7253 4.18421Z" fill="#002A8B"/>
</svg>
